<?xml version="1.0" encoding="UTF-8" standalone="no"?>
<!-- Created with Inkscape (http://www.inkscape.org/) -->

<svg
   xmlns:dc="http://purl.org/dc/elements/1.1/"
   xmlns:cc="http://creativecommons.org/ns#"
   xmlns:rdf="http://www.w3.org/1999/02/22-rdf-syntax-ns#"
   xmlns:svg="http://www.w3.org/2000/svg"
   xmlns="http://www.w3.org/2000/svg"
   xmlns:sodipodi="http://sodipodi.sourceforge.net/DTD/sodipodi-0.dtd"
   xmlns:inkscape="http://www.inkscape.org/namespaces/inkscape"
   width="31.970137mm"
   height="22.936167mm"
   viewBox="0 0 113.28001 81.269882"
   id="svg2"
   version="1.1"
   inkscape:version="0.91 r13725"
   sodipodi:docname="Corazon_x4_icon.svg">
  <defs
     id="defs4" />
  <sodipodi:namedview
     id="base"
     pagecolor="#ffffff"
     bordercolor="#666666"
     borderopacity="1.0"
     inkscape:pageopacity="0.0"
     inkscape:pageshadow="2"
     inkscape:zoom="0.35"
     inkscape:cx="-362.64571"
     inkscape:cy="32.063553"
     inkscape:document-units="px"
     inkscape:current-layer="layer1"
     showgrid="false"
     fit-margin-top="0"
     fit-margin-left="0"
     fit-margin-right="0"
     fit-margin-bottom="0"
     inkscape:window-width="1855"
     inkscape:window-height="1056"
     inkscape:window-x="65"
     inkscape:window-y="24"
     inkscape:window-maximized="1" />
  <metadata
     id="metadata7">
    <rdf:RDF>
      <cc:Work
         rdf:about="">
        <dc:format>image/svg+xml</dc:format>
        <dc:type
           rdf:resource="http://purl.org/dc/dcmitype/StillImage" />
        <dc:title></dc:title>
      </cc:Work>
    </rdf:RDF>
  </metadata>
  <g
     inkscape:label="Layer 1"
     inkscape:groupmode="layer"
     id="layer1"
     transform="translate(-314.78857,-483.15588)">
    <g
       id="g4214"
       transform="matrix(1.0666622,0,0,1.0666623,314.78864,483.15569)">
      <text
         id="text4196"
         transform="translate(238.359,-394.146)"
         word-spacing="0"
         letter-spacing="0"
         font-size="40.397"
         font-weight="400"
         style="font-weight:400;font-size:40.39699936px;line-height:125%;font-family:sans-serif;letter-spacing:0;word-spacing:0;fill:#ff0000"
         x="-155.758"
         y="443.84201"
         sodipodi:linespacing="125%">
        <tspan
           id="tspan4198"
           font-size="23.084"
           font-weight="700"
           x="-155.758"
           y="443.84201"
           style="font-weight:700;font-size:23.08399963px;-inkscape-font-specification:'sans-serif Bold'">4</tspan>
      </text>
      <path
         id="path4200"
         d="M 40.85,73.768 C 39.536,71.514 37.499,69.307 33.639,65.956 31.548,64.141 30.276,63.133 23.034,57.555 17.358,53.182 14.526,50.756 11.244,47.454 7.964,44.152 6.036,41.522 4.382,38.093 3.326,35.903 2.6,33.793 2.148,31.601 1.575,28.816 1.497,27.873 1.5,23.772 1.504,18.391 1.682,17.496 3.454,13.906 4.771,11.24 5.771,9.836 7.854,7.727 9.877,5.68 11.19,4.75 14.03,3.35 17.185,1.794 19.467,1.386 24.168,1.537 c 3.653,0.118 4.99,0.48 7.886,2.142 4.558,2.615 8.095,6.813 9.074,10.77 0.16,0.647 0.325,1.177 0.367,1.177 0.042,0 0.411,-0.757 0.82,-1.682 C 43.707,10.799 45,8.88 47.054,6.906 53.343,0.86 63.258,-0.233 71.275,4.234 c 3.274,1.824 5.938,4.48 8.002,7.978 1.625,2.753 2.456,6.41 2.598,11.433 0.205,7.277 -1.13,12.32 -4.683,17.694 -1.41,2.133 -2.453,3.425 -4.409,5.461 -3.156,3.287 -6.002,5.703 -12.721,10.798 -4.24,3.215 -6.753,5.282 -10.39,8.55 -2.915,2.618 -7.431,7.176 -7.866,7.938 -0.19,0.333 -0.362,0.605 -0.382,0.605 -0.02,0 -0.278,-0.415 -0.574,-0.923 z"
         inkscape:connector-curvature="0"
         style="fill:#ff0000;stroke:#000000;stroke-width:3" />
      <path
         id="path4202"
         d="m 77.277,53.462 25.759,0"
         inkscape:connector-curvature="0"
         style="fill:none;stroke:#ff0000;stroke-width:3" />
      <text
         id="text4204"
         transform="translate(238.359,-394.146)"
         word-spacing="0"
         letter-spacing="0"
         font-size="27.48"
         font-weight="400"
         style="font-weight:400;font-size:27.47999954px;line-height:125%;font-family:sans-serif;letter-spacing:0;word-spacing:0;fill:#ff0000"
         x="-164.03999"
         y="463.17099"
         sodipodi:linespacing="125%">
        <tspan
           id="tspan4206"
           font-size="15.703"
           font-weight="700"
           x="-164.03999"
           y="463.17099"
           style="font-weight:700;font-size:15.70300007px;-inkscape-font-specification:'sans-serif Bold'">Seg</tspan>
      </text>
    </g>
  </g>
</svg>
