<?xml version="1.0" encoding="UTF-8" standalone="no"?>
<!-- Created with Inkscape (http://www.inkscape.org/) -->

<svg
   xmlns:dc="http://purl.org/dc/elements/1.1/"
   xmlns:cc="http://creativecommons.org/ns#"
   xmlns:rdf="http://www.w3.org/1999/02/22-rdf-syntax-ns#"
   xmlns:svg="http://www.w3.org/2000/svg"
   xmlns="http://www.w3.org/2000/svg"
   xmlns:sodipodi="http://sodipodi.sourceforge.net/DTD/sodipodi-0.dtd"
   xmlns:inkscape="http://www.inkscape.org/namespaces/inkscape"
   width="27.132931mm"
   height="21.502773mm"
   viewBox="0 0 96.140298 76.190928"
   id="svg2"
   version="1.1"
   inkscape:version="0.91 r13725"
   sodipodi:docname="Bomba_x1.svg">
  <defs
     id="defs4">
    <marker
       inkscape:stockid="Arrow2Mend"
       orient="auto"
       refY="0"
       refX="0"
       id="Arrow2Mend"
       style="overflow:visible"
       inkscape:isstock="true">
      <path
         id="path4237"
         style="fill:#0000ff;fill-opacity:1;fill-rule:evenodd;stroke:#0000ff;stroke-width:0.625;stroke-linejoin:round;stroke-opacity:1"
         d="M 8.7185878,4.0337352 -2.2072895,0.01601326 8.7185884,-4.0017078 c -1.7454984,2.3720609 -1.7354408,5.6174519 -6e-7,8.035443 z"
         transform="scale(-0.6,-0.6)"
         inkscape:connector-curvature="0" />
    </marker>
    <marker
       inkscape:isstock="true"
       style="overflow:visible"
       id="Arrow2Sstart"
       refX="0"
       refY="0"
       orient="auto"
       inkscape:stockid="Arrow2Sstart">
      <path
         inkscape:connector-curvature="0"
         transform="matrix(0.3,0,0,0.3,-0.69,0)"
         d="M 8.7185878,4.0337352 -2.2072895,0.01601326 8.7185884,-4.0017078 c -1.7454984,2.3720609 -1.7354408,5.6174519 -6e-7,8.035443 z"
         style="fill:#0000ff;fill-opacity:1;fill-rule:evenodd;stroke:#0000ff;stroke-width:0.625;stroke-linejoin:round;stroke-opacity:1"
         id="path4321" />
    </marker>
    <marker
       inkscape:isstock="true"
       style="overflow:visible"
       id="Arrow1Sstart"
       refX="0"
       refY="0"
       orient="auto"
       inkscape:stockid="Arrow1Sstart">
      <path
         inkscape:connector-curvature="0"
         transform="matrix(0.2,0,0,0.2,1.2,0)"
         style="fill:#000000;fill-opacity:1;fill-rule:evenodd;stroke:#000000;stroke-width:1pt;stroke-opacity:1"
         d="M 0,0 5,-5 -12.5,0 5,5 0,0 Z"
         id="path4303" />
    </marker>
    <marker
       inkscape:isstock="true"
       style="overflow:visible"
       id="Arrow2Send"
       refX="0"
       refY="0"
       orient="auto"
       inkscape:stockid="Arrow2Send">
      <path
         inkscape:connector-curvature="0"
         transform="matrix(-0.3,0,0,-0.3,0.69,0)"
         d="M 8.7185878,4.0337352 -2.2072895,0.01601326 8.7185884,-4.0017078 c -1.7454984,2.3720609 -1.7354408,5.6174519 -6e-7,8.035443 z"
         style="fill:#0000ff;fill-opacity:1;fill-rule:evenodd;stroke:#0000ff;stroke-width:0.625;stroke-linejoin:round;stroke-opacity:1"
         id="path4324" />
    </marker>
    <marker
       inkscape:isstock="true"
       style="overflow:visible"
       id="Arrow1Send"
       refX="0"
       refY="0"
       orient="auto"
       inkscape:stockid="Arrow1Send">
      <path
         inkscape:connector-curvature="0"
         transform="matrix(-0.2,0,0,-0.2,-1.2,0)"
         style="fill:#000000;fill-opacity:1;fill-rule:evenodd;stroke:#000000;stroke-width:1pt;stroke-opacity:1"
         d="M 0,0 5,-5 -12.5,0 5,5 0,0 Z"
         id="path4306" />
    </marker>
    <marker
       inkscape:isstock="true"
       style="overflow:visible"
       id="Arrow1Mend"
       refX="0"
       refY="0"
       orient="auto"
       inkscape:stockid="Arrow1Mend">
      <path
         inkscape:connector-curvature="0"
         transform="matrix(-0.4,0,0,-0.4,-4,0)"
         style="fill:#000000;fill-opacity:1;fill-rule:evenodd;stroke:#000000;stroke-width:1pt;stroke-opacity:1"
         d="M 0,0 5,-5 -12.5,0 5,5 0,0 Z"
         id="path4300" />
    </marker>
  </defs>
  <sodipodi:namedview
     id="base"
     pagecolor="#ffffff"
     bordercolor="#666666"
     borderopacity="1.0"
     inkscape:pageopacity="0.0"
     inkscape:pageshadow="2"
     inkscape:zoom="3.959798"
     inkscape:cx="34.241704"
     inkscape:cy="32.50879"
     inkscape:document-units="px"
     inkscape:current-layer="g4240"
     showgrid="false"
     fit-margin-top="0"
     fit-margin-left="0"
     fit-margin-right="0"
     fit-margin-bottom="0"
     inkscape:window-width="743"
     inkscape:window-height="373"
     inkscape:window-x="338"
     inkscape:window-y="1325"
     inkscape:window-maximized="0" />
  <metadata
     id="metadata7">
    <rdf:RDF>
      <cc:Work
         rdf:about="">
        <dc:format>image/svg+xml</dc:format>
        <dc:type
           rdf:resource="http://purl.org/dc/dcmitype/StillImage" />
        <dc:title></dc:title>
      </cc:Work>
    </rdf:RDF>
  </metadata>
  <g
     inkscape:label="Layer 1"
     inkscape:groupmode="layer"
     id="layer1"
     transform="translate(-317.66623,-451.34527)">
    <g
       id="g4240"
       transform="translate(556.02513,57.199615)">
      <text
         sodipodi:linespacing="125%"
         id="text4155-5-3"
         y="463.03497"
         x="-163.64125"
         style="font-style:normal;font-weight:normal;font-size:29.4849472px;line-height:125%;font-family:sans-serif;letter-spacing:0px;word-spacing:0px;fill:#ff0000;fill-opacity:1;stroke:none;stroke-width:1px;stroke-linecap:butt;stroke-linejoin:miter;stroke-opacity:1"
         xml:space="preserve"><tspan
           style="font-style:normal;font-variant:normal;font-weight:bold;font-stretch:normal;font-size:16.84854126px;font-family:sans-serif;-inkscape-font-specification:'sans-serif Bold';fill:#ff0000"
           y="463.03497"
           x="-163.64125"
           id="tspan4157-6-6"
           sodipodi:role="line">x1</tspan></text>
      <path
         inkscape:connector-curvature="0"
         id="path4147"
         d="m -197.50909,467.91369 c -1.31366,-2.25429 -3.35077,-4.46122 -7.21077,-7.81184 -2.09105,-1.81511 -3.36337,-2.82301 -10.60522,-8.40139 -5.67628,-4.37236 -8.50758,-6.79834 -11.78895,-10.10111 -3.28055,-3.30193 -5.20842,-5.93151 -6.86279,-9.36073 -1.05626,-2.18949 -1.78236,-4.2999 -2.23369,-6.49218 -0.57332,-2.78512 -0.65144,-3.72823 -0.64832,-7.82876 0.004,-5.38101 0.18143,-6.2759 1.95414,-9.86556 1.3169,-2.66659 2.31643,-4.07023 4.40019,-6.17935 2.02217,-2.0467 3.33468,-2.97732 6.17432,-4.37772 3.15528,-1.55615 5.43732,-1.96419 10.13862,-1.81297 3.65311,0.11746 4.98877,0.48034 7.88546,2.14195 4.55826,2.61472 8.09546,6.81274 9.07399,10.7691 0.16008,0.64763 0.32549,1.1775 0.36735,1.1775 0.0419,0 0.41112,-0.75696 0.82058,-1.68215 1.39172,-3.14451 2.68395,-5.0641 4.73802,-7.03813 6.28959,-6.04452 16.20533,-7.13786 24.22219,-2.67083 3.27406,1.82438 5.93799,4.48026 8.00192,7.9778 1.62494,2.7537 2.45598,6.41122 2.59771,11.43303 0.20523,7.2778 -1.12875,12.31961 -4.68228,17.69435 -1.41046,2.13331 -2.45292,3.42466 -4.40881,5.46139 -3.15631,3.28682 -6.00264,5.7026 -12.72159,10.79712 -4.24081,3.21548 -6.75279,5.28268 -10.39052,8.55072 -2.9141,2.61795 -7.43036,7.17595 -7.86532,7.938 -0.18963,0.33241 -0.3616,0.60465 -0.38172,0.60465 -0.0205,0 -0.2787,-0.4153 -0.57443,-0.92289 z"
         style="fill:#ff0000;stroke:#000000;stroke-width:3;stroke-miterlimit:4;stroke-dasharray:none" />
    </g>
  </g>
</svg>
