<?xml version="1.0" encoding="UTF-8" standalone="no"?>
<svg
   xmlns:dc="http://purl.org/dc/elements/1.1/"
   xmlns:cc="http://creativecommons.org/ns#"
   xmlns:rdf="http://www.w3.org/1999/02/22-rdf-syntax-ns#"
   xmlns:svg="http://www.w3.org/2000/svg"
   xmlns="http://www.w3.org/2000/svg"
   xmlns:sodipodi="http://sodipodi.sourceforge.net/DTD/sodipodi-0.dtd"
   xmlns:inkscape="http://www.inkscape.org/namespaces/inkscape"
   viewBox="-252 400.9 65.46437 48.49784"
   width="65.464371"
   height="48.497841"
   id="svg4332"
   version="1.1"
   inkscape:version="0.91 r13725"
   sodipodi:docname="ServoTime.svg">
  <metadata
     id="metadata4340">
    <rdf:RDF>
      <cc:Work
         rdf:about="">
        <dc:format>image/svg+xml</dc:format>
        <dc:type
           rdf:resource="http://purl.org/dc/dcmitype/StillImage" />
        <dc:title></dc:title>
      </cc:Work>
    </rdf:RDF>
  </metadata>
  <defs
     id="defs4338">
    <marker
       inkscape:stockid="Arrow2Mstart"
       orient="auto"
       refY="0"
       refX="0"
       id="Arrow2Mstart"
       style="overflow:visible"
       inkscape:isstock="true">
      <path
         id="path4215"
         style="fill:#0000ff;fill-opacity:1;fill-rule:evenodd;stroke:#0000ff;stroke-width:0.625;stroke-linejoin:round;stroke-opacity:1"
         d="M 8.7185878,4.0337352 -2.2072895,0.01601326 8.7185884,-4.0017078 c -1.7454984,2.3720609 -1.7354408,5.6174519 -6e-7,8.035443 z"
         transform="scale(0.6,0.6)"
         inkscape:connector-curvature="0" />
    </marker>
    <marker
       inkscape:stockid="Arrow1Mstart"
       orient="auto"
       refY="0"
       refX="0"
       id="Arrow1Mstart"
       style="overflow:visible"
       inkscape:isstock="true">
      <path
         id="path4197"
         d="M 0,0 5,-5 -12.5,0 5,5 0,0 Z"
         style="fill:#0000ff;fill-opacity:1;fill-rule:evenodd;stroke:#0000ff;stroke-width:1pt;stroke-opacity:1"
         transform="matrix(0.4,0,0,0.4,4,0)"
         inkscape:connector-curvature="0" />
    </marker>
    <marker
       inkscape:stockid="Arrow2Mend"
       orient="auto"
       refY="0"
       refX="0"
       id="Arrow2Mend"
       style="overflow:visible"
       inkscape:isstock="true">
      <path
         id="path4218"
         style="fill:#0000ff;fill-opacity:1;fill-rule:evenodd;stroke:#0000ff;stroke-width:0.625;stroke-linejoin:round;stroke-opacity:1"
         d="M 8.7185878,4.0337352 -2.2072895,0.01601326 8.7185884,-4.0017078 c -1.7454984,2.3720609 -1.7354408,5.6174519 -6e-7,8.035443 z"
         transform="scale(-0.6,-0.6)"
         inkscape:connector-curvature="0" />
    </marker>
    <marker
       inkscape:stockid="Arrow2Sstart"
       orient="auto"
       refY="0"
       refX="0"
       id="Arrow2Sstart"
       style="overflow:visible"
       inkscape:isstock="true">
      <path
         id="path4321"
         style="fill:#0000ff;fill-opacity:1;fill-rule:evenodd;stroke:#0000ff;stroke-width:0.625;stroke-linejoin:round;stroke-opacity:1"
         d="M 8.7185878,4.0337352 -2.2072895,0.01601326 8.7185884,-4.0017078 c -1.7454984,2.3720609 -1.7354408,5.6174519 -6e-7,8.035443 z"
         transform="matrix(0.3,0,0,0.3,-0.69,0)"
         inkscape:connector-curvature="0" />
    </marker>
    <marker
       inkscape:stockid="Arrow1Sstart"
       orient="auto"
       refY="0"
       refX="0"
       id="Arrow1Sstart"
       style="overflow:visible"
       inkscape:isstock="true">
      <path
         id="path4303"
         d="M 0,0 5,-5 -12.5,0 5,5 0,0 Z"
         style="fill:#000000;fill-opacity:1;fill-rule:evenodd;stroke:#000000;stroke-width:1pt;stroke-opacity:1"
         transform="matrix(0.2,0,0,0.2,1.2,0)"
         inkscape:connector-curvature="0" />
    </marker>
    <marker
       inkscape:stockid="Arrow2Send"
       orient="auto"
       refY="0"
       refX="0"
       id="Arrow2Send"
       style="overflow:visible"
       inkscape:isstock="true">
      <path
         id="path4324"
         style="fill:#0000ff;fill-opacity:1;fill-rule:evenodd;stroke:#0000ff;stroke-width:0.625;stroke-linejoin:round;stroke-opacity:1"
         d="M 8.7185878,4.0337352 -2.2072895,0.01601326 8.7185884,-4.0017078 c -1.7454984,2.3720609 -1.7354408,5.6174519 -6e-7,8.035443 z"
         transform="matrix(-0.3,0,0,-0.3,0.69,0)"
         inkscape:connector-curvature="0" />
    </marker>
    <marker
       inkscape:stockid="Arrow1Send"
       orient="auto"
       refY="0"
       refX="0"
       id="Arrow1Send"
       style="overflow:visible"
       inkscape:isstock="true">
      <path
         id="path4306"
         d="M 0,0 5,-5 -12.5,0 5,5 0,0 Z"
         style="fill:#000000;fill-opacity:1;fill-rule:evenodd;stroke:#000000;stroke-width:1pt;stroke-opacity:1"
         transform="matrix(-0.2,0,0,-0.2,-1.2,0)"
         inkscape:connector-curvature="0" />
    </marker>
    <marker
       inkscape:stockid="Arrow1Mend"
       orient="auto"
       refY="0"
       refX="0"
       id="Arrow1Mend"
       style="overflow:visible"
       inkscape:isstock="true">
      <path
         id="path4300"
         d="M 0,0 5,-5 -12.5,0 5,5 0,0 Z"
         style="fill:#000000;fill-opacity:1;fill-rule:evenodd;stroke:#000000;stroke-width:1pt;stroke-opacity:1"
         transform="matrix(-0.4,0,0,-0.4,-4,0)"
         inkscape:connector-curvature="0" />
    </marker>
  </defs>
  <sodipodi:namedview
     pagecolor="#ffffff"
     bordercolor="#666666"
     borderopacity="1"
     objecttolerance="10"
     gridtolerance="10"
     guidetolerance="10"
     inkscape:pageopacity="0"
     inkscape:pageshadow="2"
     inkscape:window-width="1215"
     inkscape:window-height="1000"
     id="namedview4336"
     showgrid="false"
     inkscape:zoom="7.3580246"
     inkscape:cx="29.442062"
     inkscape:cy="24.45441"
     inkscape:window-x="88"
     inkscape:window-y="24"
     inkscape:window-maximized="1"
     inkscape:current-layer="svg4332"
     showguides="true"
     inkscape:guide-bbox="true"
     fit-margin-top="0"
     fit-margin-left="0"
     fit-margin-right="0"
     fit-margin-bottom="0" />
  <text
     xml:space="preserve"
     style="font-style:normal;font-weight:normal;font-size:17.5px;line-height:125%;font-family:sans-serif;letter-spacing:0px;word-spacing:0px;fill:#000000;fill-opacity:1;stroke:none;stroke-width:1px;stroke-linecap:butt;stroke-linejoin:miter;stroke-opacity:1"
     x="-247.78667"
     y="442.12488"
     id="text4155"
     sodipodi:linespacing="125%"><tspan
       sodipodi:role="line"
       id="tspan4157"
       x="-247.78667"
       y="442.12488"
       style="font-style:normal;font-variant:normal;font-weight:bold;font-stretch:normal;font-size:10px;font-family:sans-serif;-inkscape-font-specification:'sans-serif Bold'">ServoTime</tspan></text>
  <path
     style="fill:#808080;fill-rule:evenodd;stroke:#191919;stroke-width:1;stroke-miterlimit:4;stroke-dasharray:none;marker-end:"
     d="m -242.67246,430.11371 0,-0.39507 -8.13064,0 a 0.69691229,0.6772642 0 0 1 -0.6969,-0.67726 l 0,-19.07628 a 0.69691229,0.6772642 0 0 1 0.6969,-0.67727 l 8.13064,0 0,-0.39505 a 0.69691229,0.6772642 0 0 1 0.6969,-0.67728 l 45.41547,0 a 0.69691229,0.6772642 0 0 1 0.69691,0.67728 l 0,0.39505 8.13063,0 a 0.69691229,0.6772642 0 0 1 0.69692,0.67727 l 0,19.07628 a 0.69691229,0.6772642 0 0 1 -0.69692,0.67726 l -8.13063,0 0,0.39507 a 0.69691229,0.6772642 0 0 1 -0.69691,0.67726 l -45.41547,0 a 0.69691229,0.6772642 0 0 1 -0.6969,-0.67726"
     id="Fusion009002001_cs_w0000"
     inkscape:connector-curvature="0" />
  <ellipse
     id="circle4163"
     style="fill:#ffffff;stroke:#191919;stroke-width:1;stroke-miterlimit:4;stroke-dasharray:none;marker-end:"
     cy="-413.80295"
     cx="-247.66699"
     transform="scale(1,-1)"
     rx="2.4972694"
     ry="2.4268634" />
  <ellipse
     id="circle4165"
     style="fill:#ffffff;stroke:#191919;stroke-width:1;stroke-miterlimit:4;stroke-dasharray:none;marker-end:"
     cy="-425.20352"
     cx="-247.66699"
     transform="scale(1,-1)"
     rx="2.4972694"
     ry="2.4268634" />
  <ellipse
     id="circle4167"
     style="fill:#ffffff;stroke:#191919;stroke-width:1;stroke-miterlimit:4;stroke-dasharray:none;marker-end:"
     cy="-413.80295"
     cx="-190.86864"
     transform="scale(1,-1)"
     rx="2.4972694"
     ry="2.4268634" />
  <ellipse
     id="circle4169"
     style="fill:#ffffff;stroke:#191919;stroke-width:1;stroke-miterlimit:4;stroke-dasharray:none;marker-end:"
     cy="-425.20352"
     cx="-190.86864"
     transform="scale(1,-1)"
     rx="2.4972694"
     ry="2.4268634" />
  <path
     sodipodi:nodetypes="cssccc"
     id="circle4174-6-5"
     d="m -213.82252,413.47987 c -2.09069,2.1066 -2.92783,5.13852 -2.19177,7.93862 0.73606,2.80012 2.93169,4.93618 5.74884,5.59289 2.8171,0.65672 5.82095,-0.26728 7.86495,-2.41932 l 10.36367,-23.19213 z"
     style="fill:#4d4d4d;stroke:#191919;stroke-width:0.99999994;stroke-linecap:round;stroke-linejoin:round;stroke-miterlimit:4;stroke-dasharray:none;marker-end:"
     inkscape:connector-curvature="0"
     inkscape:transform-center-x="-3.7282174"
     inkscape:transform-center-y="-4.0473117" />
  <text
     xml:space="preserve"
     style="font-style:normal;font-weight:normal;font-size:12.78320885px;line-height:125%;font-family:sans-serif;letter-spacing:0px;word-spacing:0px;fill:#ff0000;fill-opacity:1;stroke:none;stroke-width:1px;stroke-linecap:butt;stroke-linejoin:miter;stroke-opacity:1"
     x="-231.88301"
     y="449.2944"
     id="text4155-3"
     sodipodi:linespacing="125%"><tspan
       sodipodi:role="line"
       id="tspan4157-6"
       x="-231.88301"
       y="449.2944"
       style="font-style:normal;font-variant:normal;font-weight:bold;font-stretch:normal;font-size:7.30469084px;font-family:sans-serif;-inkscape-font-specification:'sans-serif Bold';fill:#ff0000">20ms</tspan></text>
</svg>
