<?xml version="1.0" encoding="UTF-8" standalone="no"?>
<svg
   xmlns:dc="http://purl.org/dc/elements/1.1/"
   xmlns:cc="http://creativecommons.org/ns#"
   xmlns:rdf="http://www.w3.org/1999/02/22-rdf-syntax-ns#"
   xmlns:svg="http://www.w3.org/2000/svg"
   xmlns="http://www.w3.org/2000/svg"
   xmlns:sodipodi="http://sodipodi.sourceforge.net/DTD/sodipodi-0.dtd"
   xmlns:inkscape="http://www.inkscape.org/namespaces/inkscape"
   width="113.28"
   height="81.27"
   viewBox="0 0 106.20044 76.190928"
   id="svg6430"
   version="1.1"
   inkscape:version="0.91 r13725"
   sodipodi:docname="Corazon_x1_icon.svg">
  <metadata
     id="metadata6448">
    <rdf:RDF>
      <cc:Work
         rdf:about="">
        <dc:format>image/svg+xml</dc:format>
        <dc:type
           rdf:resource="http://purl.org/dc/dcmitype/StillImage" />
      </cc:Work>
    </rdf:RDF>
  </metadata>
  <defs
     id="defs6446">
    <marker
       inkscape:stockid="TriangleOutM"
       orient="auto"
       refY="0"
       refX="0"
       id="TriangleOutM"
       style="overflow:visible"
       inkscape:isstock="true">
      <path
         id="path4301"
         d="m 5.77,0 -8.65,5 0,-10 8.65,5 z"
         style="fill:#ff0000;fill-opacity:1;fill-rule:evenodd;stroke:#ff0000;stroke-width:1pt;stroke-opacity:1"
         transform="scale(0.4,0.4)"
         inkscape:connector-curvature="0" />
    </marker>
  </defs>
  <sodipodi:namedview
     pagecolor="#ffffff"
     bordercolor="#666666"
     borderopacity="1"
     objecttolerance="10"
     gridtolerance="10"
     guidetolerance="10"
     inkscape:pageopacity="0"
     inkscape:pageshadow="2"
     inkscape:window-width="1855"
     inkscape:window-height="1056"
     id="namedview6444"
     showgrid="false"
     inkscape:zoom="2.8269966"
     inkscape:cx="70.885319"
     inkscape:cy="42.221996"
     inkscape:window-x="65"
     inkscape:window-y="24"
     inkscape:window-maximized="1"
     inkscape:current-layer="svg6430" />
  <text
     y="443.842"
     x="-155.758"
     style="line-height:125%"
     font-weight="400"
     font-size="40.397"
     font-family="sans-serif"
     letter-spacing="0"
     word-spacing="0"
     fill="red"
     transform="translate(238.359 -394.146)"
     id="text6432">
    <tspan
       style="-inkscape-font-specification:'sans-serif Bold'"
       y="443.842"
       x="-155.758"
       font-weight="700"
       font-size="23.084"
       id="tspan6434">1</tspan>
  </text>
  <path
     d="M40.85 73.768c-1.314-2.254-3.351-4.461-7.211-7.812-2.091-1.815-3.363-2.823-10.605-8.401-5.676-4.373-8.508-6.799-11.79-10.101-3.28-3.302-5.208-5.932-6.862-9.361-1.056-2.19-1.782-4.3-2.234-6.492-.573-2.785-.651-3.728-.648-7.829.004-5.381.182-6.276 1.954-9.866 1.317-2.666 2.317-4.07 4.4-6.179C9.877 5.68 11.19 4.75 14.03 3.35c3.155-1.556 5.437-1.964 10.138-1.813 3.653.118 4.99.48 7.886 2.142 4.558 2.615 8.095 6.813 9.074 10.77.16.647.325 1.177.367 1.177.042 0 .411-.757.82-1.682 1.392-3.145 2.685-5.064 4.739-7.038C53.343.86 63.258-.233 71.275 4.234c3.274 1.824 5.938 4.48 8.002 7.978 1.625 2.753 2.456 6.41 2.598 11.433.205 7.277-1.13 12.32-4.683 17.694-1.41 2.133-2.453 3.425-4.409 5.461-3.156 3.287-6.002 5.703-12.721 10.798-4.24 3.215-6.753 5.282-10.39 8.55-2.915 2.618-7.431 7.176-7.866 7.938-.19.333-.362.605-.382.605-.02 0-.278-.415-.574-.923z"
     fill="red"
     stroke="#000"
     stroke-width="3"
     id="path6436" />
  <path
     d="M77.277 53.462h25.759"
     fill="none"
     stroke="red"
     stroke-width="3"
     id="path6438" />
  <text
     y="463.171"
     x="-164.04"
     style="line-height:125%"
     font-weight="400"
     font-size="27.48"
     font-family="sans-serif"
     letter-spacing="0"
     word-spacing="0"
     fill="red"
     transform="translate(238.359 -394.146)"
     id="text6440">
    <tspan
       style="-inkscape-font-specification:'sans-serif Bold'"
       y="463.171"
       x="-164.04"
       font-weight="700"
       font-size="15.703"
       id="tspan6442">Seg</tspan>
  </text>
  <path
     style="opacity:1;fill:none;fill-opacity:1;stroke:#0000ff;stroke-width:2.81251168;stroke-linecap:round;stroke-linejoin:bevel;stroke-miterlimit:4;stroke-dasharray:none;stroke-dashoffset:0;stroke-opacity:1"
     d="m 26.952014,49.23878 10.205016,0 0,-26.33343 7.951498,0 0,26.37402 8.692837,0"
     id="path4148-3"
     inkscape:connector-curvature="0"
     sodipodi:nodetypes="cccccc" />
</svg>
